<?xml version="1.0" encoding="UTF-8" standalone="no"?>
<!-- Created with Inkscape (http://www.inkscape.org/) -->

<svg
   xmlns:dc="http://purl.org/dc/elements/1.1/"
   xmlns:cc="http://creativecommons.org/ns#"
   xmlns:rdf="http://www.w3.org/1999/02/22-rdf-syntax-ns#"
   xmlns:svg="http://www.w3.org/2000/svg"
   xmlns="http://www.w3.org/2000/svg"
   xmlns:sodipodi="http://sodipodi.sourceforge.net/DTD/sodipodi-0.dtd"
   xmlns:inkscape="http://www.inkscape.org/namespaces/inkscape"
   width="219.69525"
   height="219.69511"
   viewBox="0 0 219.69524 219.69511"
   id="svg5602"
   version="1.1"
   inkscape:version="0.91 r13725"
   sodipodi:docname="IntellEditXMLLogo_v5.svg"
   inkscape:export-filename="C:\GITHUB_UNIVERSITY\MY_PAPERS\SANER_Poster_2017\POSTER\IntellEditXMLLogo_v5.png"
   inkscape:export-xdpi="300.11591"
   inkscape:export-ydpi="300.11591">
  <defs
     id="defs5604">
    <linearGradient
       gradientTransform="matrix(1.7163692,0,0,-1.7163692,992.97891,1945.8431)"
       gradientUnits="userSpaceOnUse"
       id="SVGID_1_"
       x1="-577.51221"
       x2="-482.48792"
       y1="501.14551"
       y2="636.85437">
      <stop
         offset="0"
         style="stop-color:#f3c900;stop-opacity:0"
         id="stop4" />
      <stop
         offset="1"
         style="stop-color:#a14d7d;stop-opacity:1"
         id="stop6" />
    </linearGradient>
    <filter
       inkscape:collect="always"
       style="color-interpolation-filters:sRGB"
       id="filter4224"
       x="-0.0076362588"
       width="1.0152725"
       y="-0.028001407"
       height="1.0560029">
      <feGaussianBlur
         inkscape:collect="always"
         stdDeviation="0.39476152"
         id="feGaussianBlur4226" />
    </filter>
    <filter
       inkscape:collect="always"
       style="color-interpolation-filters:sRGB"
       id="filter4224-6"
       x="-0.0076362588"
       width="1.0152725"
       y="-0.028001407"
       height="1.0560029">
      <feGaussianBlur
         inkscape:collect="always"
         stdDeviation="0.39476152"
         id="feGaussianBlur4226-4" />
    </filter>
  </defs>
  <sodipodi:namedview
     id="base"
     pagecolor="#ffffff"
     bordercolor="#666666"
     borderopacity="1.0"
     inkscape:pageopacity="0.0"
     inkscape:pageshadow="2"
     inkscape:zoom="0.70000001"
     inkscape:cx="519.45563"
     inkscape:cy="-144.62294"
     inkscape:document-units="px"
     inkscape:current-layer="layer1"
     showgrid="false"
     units="px"
     inkscape:window-width="1920"
     inkscape:window-height="1178"
     inkscape:window-x="1912"
     inkscape:window-y="-8"
     inkscape:window-maximized="1"
     inkscape:snap-text-baseline="false"
     fit-margin-top="0"
     fit-margin-left="0"
     fit-margin-right="0"
     fit-margin-bottom="0"
     showguides="false" />
  <metadata
     id="metadata5607">
    <rdf:RDF>
      <cc:Work
         rdf:about="">
        <dc:format>image/svg+xml</dc:format>
        <dc:type
           rdf:resource="http://purl.org/dc/dcmitype/StillImage" />
        <dc:title></dc:title>
      </cc:Work>
    </rdf:RDF>
  </metadata>
  <g
     inkscape:label="Ebene 1"
     inkscape:groupmode="layer"
     id="layer1"
     transform="translate(26.54444,-859.38118)">
    <path
       inkscape:connector-curvature="0"
       style="fill:url(#SVGID_1_)"
       d="m 193.15081,1051.6145 c 0,15.1041 -12.35785,27.4618 -27.46192,27.4618 l -164.77141633,0 c -15.10404767,0 -27.46191367,-12.3577 -27.46191367,-27.4618 l 0,-164.77138 c 0,-15.1041 12.357866,-27.46194 27.46191367,-27.46194 l 164.77141633,0 c 15.10407,0 27.46192,12.35784 27.46192,27.46194 l 0,164.77138 z"
       id="path8-6" />
    <g
       id="Livello_26-6"
       transform="matrix(1.2152187,0,0,1.2152187,-141.88634,1116.9768)">
      <path
         d="m 177.30183,-110.46863 c 0,-0.562 0.448,-1.013 1.008,-1.013 l 14.525,0 c 0.561,0 1.012,0.45 1.012,1.013 0,0.561 -0.451,1.014 -1.012,1.014 l -14.525,0 c -0.558,-0.001 -1.008,-0.454 -1.008,-1.014 m 58.408,-6.443 -100.688,0 0,-67.445 100.688,0 0,67.445 0,0 z m 20.021,6.939 c 0,-1.5 -1.213,-2.716 -2.707,-2.716 l 0,-0.193 -14.363,0 c 0.732,-0.328 1.246,-1.063 1.246,-1.923 l 0,-71.664 c 0,-1.164 -0.938,-2.107 -2.1,-2.107 l -104.884,0 c -1.155,0 -2.097,0.943 -2.097,2.107 l 0,71.663 c 0,0.855 0.513,1.595 1.245,1.923 l -13.95,0 0,0.188 c -1.494,-10e-4 -2.706,1.217 -2.706,2.719 0,1.502 1.212,2.72 2.706,2.72 l 134.903,0 c 1.496,-0.002 2.707,-1.217 2.707,-2.717"
         id="path3344-1"
         inkscape:connector-curvature="0" />
    </g>
    <path
       style="fill:#f5cf49;fill-opacity:1;stroke:#37474f;stroke-width:1.21521854;stroke-opacity:1"
       inkscape:connector-curvature="0"
       d="m 27.746816,924.51421 c -1.72759,0 -2.434251,-1.22427 -1.570487,-2.72017 L 32.08392,911.562 c 0.863742,-1.49634 2.277259,-1.49634 3.141024,0 l 5.907627,10.23204 c 0.863753,1.49632 0.157178,2.72017 -1.570596,2.72017 l -11.815159,0 z"
       id="path15-8-5-7" />
    <path
       style="fill:#e74c3c;stroke:#37474f;stroke-width:1.21521854;stroke-miterlimit:4;stroke-dasharray:none;stroke-opacity:1"
       inkscape:connector-curvature="0"
       d="m 41.40664,952.40788 c 0,4.09491 -3.319394,7.41429 -7.414292,7.41429 -4.094764,0 -7.414292,-3.31938 -7.414292,-7.41429 0,-4.09479 3.319528,-7.4143 7.414292,-7.4143 4.094898,0 7.414292,3.31951 7.414292,7.4143 z"
       id="path8-3-9-3" />
    <path
       style="fill:#37474f;fill-opacity:1"
       inkscape:connector-curvature="0"
       d="m 30.322509,949.73874 2.62147,2.66914 -2.62147,2.59502 1.048515,1.03799 2.621324,-2.59501 2.6217,2.59501 1.048369,-1.03799 -2.621676,-2.59502 2.621676,-2.66914 -1.048369,-1.03801 -2.6217,2.59501 -2.621324,-2.59501 -1.048515,1.03801 z"
       id="path12-06-8-3" />
    <path
       inkscape:connector-curvature="0"
       style="fill:#37474f;fill-opacity:1"
       d="m 109.35059,905.22022 -70.643583,0 0,-3.77691 70.643583,0 0,3.77691 z"
       id="path19-6-5-8" />
    <path
       inkscape:connector-curvature="0"
       style="fill:#37474f;fill-opacity:1"
       d="m 76.592093,917.63982 -23.546308,0 0,-3.77692 23.546308,0 0,3.77692 z"
       id="path21-7-5-9" />
    <path
       inkscape:connector-curvature="0"
       style="fill:#37474f;fill-opacity:1"
       d="m 87.610249,930.05942 -18.313905,0 0,-3.77691 18.313905,0 0,3.77691 z"
       id="path23-5-5-1" />
    <path
       inkscape:connector-curvature="0"
       style="fill:#37474f;fill-opacity:1"
       d="m 135.15634,942.47866 -70.639535,0 0,-3.77688 70.639535,0 0,3.77688 z"
       id="path25-3-8-4" />
    <path
       inkscape:connector-curvature="0"
       style="fill:#37474f;fill-opacity:1"
       d="m 72.316698,954.89793 -18.315009,0 0,-3.7769 18.315009,0 0,3.7769 z"
       id="path27-8-5-2" />
    <path
       inkscape:connector-curvature="0"
       style="fill:#37474f;fill-opacity:1"
       d="m 105.92472,967.31751 -61.482197,0 0,-3.7769 61.482197,0 0,3.7769 z"
       id="path29-0-2-0" />
    <g
       id="g17-8-9-5"
       transform="matrix(0.39263429,0,0,0.3926343,21.090092,905.66776)">
      <path
         style="fill:#37474f;fill-opacity:1"
         inkscape:connector-curvature="0"
         d="m 34,32 c 0,1.105 -0.895,2 -2,2 l 0,0 c -1.105,0 -2,-0.895 -2,-2 l 0,-8 c 0,-1.105 0.895,-2 2,-2 l 0,0 c 1.105,0 2,0.895 2,2 l 0,8 z"
         id="path19-4-2-3-5" />
    </g>
    <g
       id="g21-7-1-4"
       transform="matrix(0.39263429,0,0,0.3926343,21.090092,905.66776)">
      <path
         style="fill:#37474f;fill-opacity:1"
         inkscape:connector-curvature="0"
         d="m 34,40 c 0,1.105 -0.895,2 -2,2 l 0,0 c -1.105,0 -2,-0.895 -2,-2 l 0,0 c 0,-1.105 0.895,-2 2,-2 l 0,0 c 1.105,0 2,0.895 2,2 l 0,0 z"
         id="path23-7-9-0-94" />
    </g>
    <ellipse
       style="fill:#ffd766;fill-opacity:1"
       id="path5110-2-0-8"
       cx="66.901886"
       cy="934.27881"
       rx="13.276258"
       ry="13.164693" />
    <path
       style="fill:#000000;fill-rule:evenodd;stroke:none;stroke-width:1"
       inkscape:connector-curvature="0"
       d="m 79.05613,942.90797 c 1.732429,-2.48463 2.748388,-5.50604 2.748388,-8.76452 0,-8.47324 -6.868805,-15.34201 -15.341892,-15.34201 -8.473076,0 -15.341892,6.86877 -15.341892,15.34201 0,8.47298 6.868816,15.34178 15.341892,15.34178 3.258172,0 6.27912,-1.01569 8.763499,-2.74772 l 9.12e-4,-8.8e-4 11.377436,11.37763 c 0.210962,0.21082 0.546508,0.21727 0.763084,7.1e-4 l 3.066592,-3.06661 c 0.2105,-0.21046 0.200718,-0.56153 -8.5e-4,-0.76315 L 79.056094,942.90797 Z m -12.593504,2.96733 c 6.479437,0 11.732035,-5.25254 11.732035,-11.73185 0,-6.47967 -5.252598,-11.73208 -11.732035,-11.73208 -6.479424,0 -11.732036,5.25241 -11.732036,11.73208 0,6.47931 5.252612,11.73185 11.732036,11.73185 z"
       id="common-search-lookup-glyph-5-2-2-5" />
    <path
       inkscape:connector-curvature="0"
       class="st0"
       d="m 69.4084,934.30082 -1.353305,-0.096 c -0.112288,-0.51356 -0.315603,-0.99488 -0.588407,-1.42291 l 0.893306,-1.02174 c 0.09624,-0.096 0.09624,-0.25666 0,-0.35826 l -0.839814,-0.83983 c -0.09624,-0.096 -0.256749,-0.096 -0.358379,0 l -1.021669,0.8932 c -0.427927,-0.27269 -0.909338,-0.47601 -1.42284,-0.58828 l -0.09625,-1.35339 c 0,-0.13903 -0.112288,-0.25145 -0.251404,-0.25145 l -1.187499,0 c -0.139072,0 -0.251404,0.11181 -0.251404,0.25145 l -0.09624,1.35339 c -0.513517,0.11181 -0.994937,0.31559 -1.422865,0.58828 l -1.021659,-0.8932 c -0.09624,-0.096 -0.256751,-0.096 -0.35839,0 l -0.839791,0.83984 c -0.09624,0.096 -0.09624,0.25679 0,0.35826 l 0.893283,1.02175 c -0.272803,0.42802 -0.476062,0.90934 -0.588396,1.4229 l -1.353317,0.096 c -0.13907,0 -0.251403,0.11183 -0.251403,0.25131 l 0,1.18752 c 0,0.13913 0.11229,0.25142 0.251403,0.25142 l 1.353317,0.096 c 0.112289,0.51353 0.315593,0.99501 0.588396,1.42288 l -0.893283,1.02164 c -0.09624,0.096 -0.09624,0.25677 0,0.35837 l 0.839791,0.83972 c 0.09624,0.096 0.256763,0.096 0.35839,0 l 1.021659,-0.89319 c 0.427928,0.27284 0.909348,0.476 1.422865,0.58843 l 0.09624,1.35327 c 0,0.13901 0.112289,0.25141 0.251404,0.25141 l 1.187499,0 c 0.139068,0 0.251404,-0.1118 0.251404,-0.25141 l 0.09625,-1.35327 c 0.513502,-0.11183 0.994913,-0.31559 1.42284,-0.58843 l 1.021669,0.89319 c 0.09624,0.096 0.256765,0.096 0.358379,0 l 0.839814,-0.83972 c 0.09624,-0.096 0.09624,-0.25677 0,-0.35837 l -0.893306,-1.02164 c 0.272804,-0.42787 0.476075,-0.90935 0.588407,-1.42288 l 1.353305,-0.096 c 0.139082,0 0.251416,-0.11181 0.251416,-0.25142 l 0,-1.18752 c 0,-0.13904 -0.112289,-0.25131 -0.251416,-0.25131 z m -5.63255,3.26298 c -1.337263,0 -2.417763,-1.08069 -2.417763,-2.41779 0,-1.33746 1.0805,-2.41779 2.417763,-2.41779 1.337263,0 2.417775,1.08033 2.417775,2.41779 0,1.33175 -1.080512,2.41779 -2.417775,2.41779 z"
       id="path7-86-5-1-3" />
    <path
       inkscape:connector-curvature="0"
       class="st0"
       d="m 75.736334,929.42779 -0.8398,0.29409 c -0.203269,-0.27804 -0.449314,-0.51866 -0.722131,-0.7007 l 0.272817,-0.85053 c 0.03208,-0.085 -0.006,-0.18167 -0.09089,-0.21376 l -0.722132,-0.28884 c -0.08568,-0.0315 -0.18187,0.0123 -0.213964,0.0911 l -0.385126,0.80241 c -0.331645,-0.0535 -0.668637,-0.0535 -1.010977,0.017 l -0.406526,-0.79171 c -0.03742,-0.0849 -0.133723,-0.12299 -0.219311,-0.0849 l -0.716774,0.31025 c -0.08556,0.0365 -0.123028,0.13368 -0.08556,0.21921 l 0.294204,0.83983 c -0.278151,0.20332 -0.518861,0.4494 -0.700731,0.72209 l -0.850495,-0.27269 c -0.08556,-0.0315 -0.181869,0.0123 -0.213962,0.0911 l -0.288847,0.72195 c -0.03209,0.085 0.006,0.18206 0.0909,0.21414 l 0.802385,0.38509 c -0.05348,0.33152 -0.05348,0.66849 0.01606,1.01095 l -0.791656,0.40648 c -0.08556,0.0365 -0.123039,0.13382 -0.08556,0.21935 l 0.310234,0.71688 c 0.03742,0.0849 0.133722,0.12285 0.219312,0.0849 l 0.8398,-0.29408 c 0.203269,0.27804 0.449326,0.51876 0.722119,0.70068 l -0.272793,0.85054 c -0.03209,0.0849 0.0049,0.1818 0.0909,0.21386 l 0.722122,0.28888 c 0.08556,0.0315 0.181869,-0.0123 0.213962,-0.0911 l 0.385139,-0.8024 c 0.331633,0.0535 0.668626,0.0535 1.010965,-0.017 l 0.406527,0.7917 c 0.03742,0.0849 0.133722,0.12297 0.219311,0.0849 l 0.716772,-0.31036 c 0.08567,-0.0365 0.123027,-0.13367 0.08567,-0.21923 l -0.294203,-0.83984 c 0.278163,-0.2032 0.518861,-0.44939 0.700731,-0.72209 l 0.850509,0.2727 c 0.08555,0.0329 0.181855,-0.0123 0.213949,-0.0911 l 0.288859,-0.72207 c 0.03209,-0.085 -0.0061,-0.18193 -0.09088,-0.21402 L 75.4049,931.86637 c 0.05348,-0.33165 0.05348,-0.66863 -0.01605,-1.01095 l 0.791656,-0.4065 c 0.08568,-0.0365 0.123027,-0.13378 0.08568,-0.21935 l -0.310246,-0.71684 c -0.04277,-0.0849 -0.139071,-0.12286 -0.21931,-0.0849 z m -2.546148,3.42874 c -0.802361,0.34768 -1.738445,-0.0208 -2.08613,-0.82914 -0.347687,-0.80762 0.02139,-1.73849 0.829094,-2.08605 0.802362,-0.34766 1.738444,0.0218 2.086143,0.82915 0.347684,0.80776 -0.02673,1.73826 -0.829107,2.08604 z"
       id="path9-1-3-5-4-6" />
    <path
       inkscape:connector-curvature="0"
       style="fill:#ffd766"
       d="m 121.45969,947.62363 c 0,0 0,-1.53317 0,-1.53317 0.45994,-1.53314 1.37984,-3.67955 3.37296,-5.67264 4.44611,-4.44613 4.44611,-10.88537 0,-15.48482 -1.99311,-2.14643 -4.90611,-3.37293 -7.81908,-3.37293 l 0,0 c -2.91299,0 -5.67266,1.2265 -7.81908,3.37293 -4.44612,4.59945 -4.44612,11.03869 0,15.48482 1.99311,1.99309 2.913,5.67264 3.37294,7.20581"
       id="path9-01" />
    <path
       inkscape:connector-curvature="0"
       style="fill:none;stroke:#000000;stroke-width:3.06630015;stroke-linecap:round;stroke-linejoin:round;stroke-miterlimit:10;stroke-opacity:1"
       d="m 121.45969,946.09046 c 0,0 0,0 0,0 0.45994,-1.53314 1.22652,-3.67955 3.21964,-5.67264 4.44612,-4.44613 4.44612,-10.88537 0,-15.48482 -1.99312,-2.14643 -4.9061,-3.37293 -7.81908,-3.37293 l 0,0 c -2.91298,0 -5.67265,1.2265 -7.81907,3.37293 -4.44613,4.59945 -4.44613,11.03869 0,15.48482 1.9931,1.99309 2.913,4.1395 3.37295,5.67264"
       stroke-miterlimit="10"
       id="path11-6" />
    <line
       style="fill:none;stroke:#000000;stroke-width:3.06630015;stroke-linecap:round;stroke-linejoin:round;stroke-miterlimit:10;stroke-opacity:1"
       stroke-miterlimit="10"
       x1="111.34093"
       x2="122.07299"
       y1="948.54352"
       y2="948.54352"
       id="line13-6" />
    <line
       style="fill:none;stroke:#000000;stroke-width:3.06630015;stroke-linecap:round;stroke-linejoin:round;stroke-miterlimit:10;stroke-opacity:1"
       stroke-miterlimit="10"
       x1="112.87415"
       x2="120.53987"
       y1="953.14301"
       y2="953.14301"
       id="line15-1" />
    <line
       style="fill:none;stroke:#000000;stroke-width:3.06630015;stroke-linecap:round;stroke-linejoin:round;stroke-miterlimit:10;stroke-opacity:1"
       stroke-miterlimit="10"
       x1="114.40726"
       x2="119.00672"
       y1="956.20923"
       y2="956.20923"
       id="line17-3" />
    <line
       style="fill:none;stroke:#000000;stroke-width:3.06630015;stroke-linecap:round;stroke-linejoin:round;stroke-miterlimit:10;stroke-opacity:1"
       stroke-miterlimit="10"
       x1="115.94039"
       x2="115.94039"
       y1="917.88049"
       y2="911.74792"
       id="line19-03" />
    <line
       style="fill:none;stroke:#000000;stroke-width:3.06630015;stroke-linecap:round;stroke-linejoin:round;stroke-miterlimit:10;stroke-opacity:1"
       stroke-miterlimit="10"
       x1="132.80507"
       x2="138.93764"
       y1="933.21204"
       y2="933.21204"
       id="line21-3" />
    <line
       style="fill:none;stroke:#000000;stroke-width:3.06630015;stroke-linecap:round;stroke-linejoin:round;stroke-miterlimit:10;stroke-opacity:1"
       stroke-miterlimit="10"
       x1="96.009445"
       x2="102.14202"
       y1="933.21204"
       y2="933.21204"
       id="line23-1" />
    <line
       style="fill:none;stroke:#000000;stroke-width:3.06630015;stroke-linecap:round;stroke-linejoin:round;stroke-miterlimit:10;stroke-opacity:1"
       stroke-miterlimit="10"
       x1="129.27882"
       x2="133.87828"
       y1="922.01996"
       y2="917.42059"
       id="line25-0" />
    <line
       style="fill:none;stroke:#000000;stroke-width:3.06630015;stroke-linecap:round;stroke-linejoin:round;stroke-miterlimit:10;stroke-opacity:1"
       stroke-miterlimit="10"
       x1="105.055"
       x2="100.45555"
       y1="922.01996"
       y2="917.42059"
       id="line27-9" />
    <polyline
       transform="matrix(1.5331503,0,0,1.5331503,62.28011,893.35011)"
       style="fill:none;stroke:#000000;stroke-width:2;stroke-linecap:round;stroke-linejoin:round;stroke-miterlimit:10;stroke-opacity:1"
       points="  35.7,25.3 34.1,28.2 37.4,28.2 35.7,31.1 "
       stroke-miterlimit="10"
       id="polyline29-2" />
    <text
       xml:space="preserve"
       style="font-style:normal;font-weight:normal;font-size:40px;line-height:110.00000238%;font-family:sans-serif;letter-spacing:0px;word-spacing:0px;fill:#000000;fill-opacity:1;stroke:none;stroke-width:1px;stroke-linecap:butt;stroke-linejoin:miter;stroke-opacity:1;filter:url(#filter4224)"
       x="64.672455"
       y="1039.9878"
       id="text5552"
       sodipodi:linespacing="110%"
       transform="matrix(1.0144575,0,0,1.0144575,16.211854,-26.706336)"><tspan
         sodipodi:role="line"
         x="68.139252"
         y="1039.9878"
         style="font-style:normal;font-variant:normal;font-weight:normal;font-stretch:normal;font-size:40px;line-height:110.00000238%;font-family:'Helvetica Neue';-inkscape-font-specification:'Helvetica Neue';text-align:center;text-anchor:middle"
         id="tspan3389">Intell<tspan
   style="font-size:25px;text-align:center;text-anchor:middle"
   id="tspan5560"
   dy="5">Edit </tspan></tspan></text>
    <text
       xml:space="preserve"
       style="font-style:normal;font-weight:normal;font-size:40px;line-height:92.00000167%;font-family:sans-serif;letter-spacing:0px;word-spacing:0px;fill:#000000;fill-opacity:1;stroke:none;stroke-width:1px;stroke-linecap:butt;stroke-linejoin:miter;stroke-opacity:1;filter:url(#filter4224-6)"
       x="79.707825"
       y="1061.4575"
       id="text5552-2"
       sodipodi:linespacing="92.000002%"><tspan
         sodipodi:role="line"
         x="94.707825"
         y="1061.4575"
         style="font-style:normal;font-variant:normal;font-weight:normal;font-stretch:normal;font-size:35px;line-height:92.00000167%;font-family:'Courier New';-inkscape-font-specification:'Courier New';text-align:center;letter-spacing:30px;text-anchor:middle"
         id="tspan3411">XML</tspan></text>
  </g>
</svg>
