<?xml version="1.0" encoding="UTF-8" standalone="no"?>
<!-- Created with Inkscape (http://www.inkscape.org/) -->

<svg
   xmlns:dc="http://purl.org/dc/elements/1.1/"
   xmlns:cc="http://creativecommons.org/ns#"
   xmlns:rdf="http://www.w3.org/1999/02/22-rdf-syntax-ns#"
   xmlns:svg="http://www.w3.org/2000/svg"
   xmlns="http://www.w3.org/2000/svg"
   xmlns:sodipodi="http://sodipodi.sourceforge.net/DTD/sodipodi-0.dtd"
   xmlns:inkscape="http://www.inkscape.org/namespaces/inkscape"
   width="219.69525"
   height="219.69511"
   viewBox="0 0 219.69524 219.69511"
   id="svg5602"
   version="1.1"
   inkscape:version="0.91 r13725"
   sodipodi:docname="IntellEditXMLLogo_v6.svg"
   inkscape:export-filename="C:\GITHUB_UNIVERSITY\MY_PAPERS\SANER_Poster_2017\POSTER\IntellEditXMLLogo_v6.png"
   inkscape:export-xdpi="300.11591"
   inkscape:export-ydpi="300.11591">
  <defs
     id="defs5604">
    <linearGradient
       gradientTransform="matrix(1.7163692,0,0,-1.7163692,992.97891,1945.8431)"
       gradientUnits="userSpaceOnUse"
       id="SVGID_1_"
       x1="-577.51221"
       x2="-482.48792"
       y1="501.14551"
       y2="636.85437">
      <stop
         offset="0"
         style="stop-color:#f3c900;stop-opacity:0"
         id="stop4" />
      <stop
         offset="1"
         style="stop-color:#a14d7d;stop-opacity:1"
         id="stop6" />
    </linearGradient>
    <filter
       inkscape:collect="always"
       style="color-interpolation-filters:sRGB"
       id="filter4224"
       x="-0.0076362588"
       width="1.0152725"
       y="-0.028001407"
       height="1.0560029">
      <feGaussianBlur
         inkscape:collect="always"
         stdDeviation="0.39476152"
         id="feGaussianBlur4226" />
    </filter>
    <filter
       inkscape:collect="always"
       style="color-interpolation-filters:sRGB"
       id="filter4224-6"
       x="-0.0076362588"
       width="1.0152725"
       y="-0.028001407"
       height="1.0560029">
      <feGaussianBlur
         inkscape:collect="always"
         stdDeviation="0.39476152"
         id="feGaussianBlur4226-4" />
    </filter>
  </defs>
  <sodipodi:namedview
     id="base"
     pagecolor="#ffffff"
     bordercolor="#666666"
     borderopacity="1.0"
     inkscape:pageopacity="0.0"
     inkscape:pageshadow="2"
     inkscape:zoom="0.9899495"
     inkscape:cx="178.03396"
     inkscape:cy="-44.040555"
     inkscape:document-units="px"
     inkscape:current-layer="layer1"
     showgrid="false"
     units="px"
     inkscape:window-width="1920"
     inkscape:window-height="1178"
     inkscape:window-x="1912"
     inkscape:window-y="-8"
     inkscape:window-maximized="1"
     inkscape:snap-text-baseline="false"
     fit-margin-top="0"
     fit-margin-left="0"
     fit-margin-right="0"
     fit-margin-bottom="0"
     showguides="false" />
  <metadata
     id="metadata5607">
    <rdf:RDF>
      <cc:Work
         rdf:about="">
        <dc:format>image/svg+xml</dc:format>
        <dc:type
           rdf:resource="http://purl.org/dc/dcmitype/StillImage" />
        <dc:title></dc:title>
      </cc:Work>
    </rdf:RDF>
  </metadata>
  <g
     inkscape:label="Ebene 1"
     inkscape:groupmode="layer"
     id="layer1"
     transform="translate(26.54444,-859.38118)">
    <path
       inkscape:connector-curvature="0"
       style="fill:url(#SVGID_1_)"
       d="m 193.15081,1051.6145 c 0,15.1041 -12.35785,27.4618 -27.46192,27.4618 l -164.77141633,0 c -15.10404767,0 -27.46191367,-12.3577 -27.46191367,-27.4618 l 0,-164.77138 c 0,-15.1041 12.357866,-27.46194 27.46191367,-27.46194 l 164.77141633,0 c 15.10407,0 27.46192,12.35784 27.46192,27.46194 l 0,164.77138 z"
       id="path8-6" />
    <g
       id="Livello_26-6"
       transform="matrix(1.3886997,0,0,1.3886997,-173.57461,1150.4224)">
      <path
         d="m 177.30183,-110.46863 c 0,-0.562 0.448,-1.013 1.008,-1.013 l 14.525,0 c 0.561,0 1.012,0.45 1.012,1.013 0,0.561 -0.451,1.014 -1.012,1.014 l -14.525,0 c -0.558,-0.001 -1.008,-0.454 -1.008,-1.014 m 58.408,-6.443 -100.688,0 0,-67.445 100.688,0 0,67.445 0,0 z m 20.021,6.939 c 0,-1.5 -1.213,-2.716 -2.707,-2.716 l 0,-0.193 -14.363,0 c 0.732,-0.328 1.246,-1.063 1.246,-1.923 l 0,-71.664 c 0,-1.164 -0.938,-2.107 -2.1,-2.107 l -104.884,0 c -1.155,0 -2.097,0.943 -2.097,2.107 l 0,71.663 c 0,0.855 0.513,1.595 1.245,1.923 l -13.95,0 0,0.188 c -1.494,-10e-4 -2.706,1.217 -2.706,2.719 0,1.502 1.212,2.72 2.706,2.72 l 134.903,0 c 1.496,-0.002 2.707,-1.217 2.707,-2.717"
         id="path3344-1"
         inkscape:connector-curvature="0" />
    </g>
    <path
       style="fill:#f5cf49;fill-opacity:1;stroke:#37474f;stroke-width:1.38869953;stroke-opacity:1"
       inkscape:connector-curvature="0"
       d="m 20.274857,930.48441 c -1.974215,0 -2.781758,-1.39904 -1.794685,-3.10849 l 6.750941,-11.69274 c 0.987047,-1.70996 2.602354,-1.70996 3.589428,0 l 6.750981,11.69274 c 0.98706,1.70992 0.179616,3.10849 -1.79481,3.10849 l -13.501855,0 z"
       id="path15-8-5-7" />
    <path
       style="fill:#e74c3c;stroke:#37474f;stroke-width:1.38869953;stroke-miterlimit:4;stroke-dasharray:none;stroke-opacity:1"
       inkscape:connector-curvature="0"
       d="m 35.884717,962.36009 c 0,4.67949 -3.793261,8.47275 -8.472735,8.47275 -4.679319,0 -8.472734,-3.79326 -8.472734,-8.47275 0,-4.67934 3.793415,-8.47274 8.472734,-8.47274 4.679474,0 8.472735,3.7934 8.472735,8.47274 z"
       id="path8-3-9-3" />
    <path
       style="fill:#37474f;fill-opacity:1"
       inkscape:connector-curvature="0"
       d="m 23.218249,959.30992 2.995702,3.05017 -2.995702,2.96549 1.198197,1.18617 2.995536,-2.96547 2.995966,2.96547 1.198031,-1.18617 -2.995938,-2.96549 2.995938,-3.05017 -1.198031,-1.18621 -2.995966,2.96547 -2.995536,-2.96547 -1.198197,1.18621 z"
       id="path12-06-8-3" />
    <path
       inkscape:connector-curvature="0"
       style="fill:#37474f;fill-opacity:1"
       d="m 113.52815,908.43606 -80.728459,0 0,-4.31609 80.728459,0 0,4.31609 z"
       id="path19-6-5-8" />
    <path
       inkscape:connector-curvature="0"
       style="fill:#37474f;fill-opacity:1"
       d="m 76.09314,922.62865 -26.907709,0 0,-4.3161 26.907709,0 0,4.3161 z"
       id="path21-7-5-9" />
    <path
       inkscape:connector-curvature="0"
       style="fill:#37474f;fill-opacity:1"
       d="m 88.684214,936.82123 -20.928344,0 0,-4.31609 20.928344,0 0,4.31609 z"
       id="path23-5-5-1" />
    <path
       inkscape:connector-curvature="0"
       style="fill:#37474f;fill-opacity:1"
       d="m 143.01784,951.01341 -80.72382,0 0,-4.31605 80.72382,0 0,4.31605 z"
       id="path25-3-8-4" />
    <path
       inkscape:connector-curvature="0"
       style="fill:#37474f;fill-opacity:1"
       d="m 71.207401,965.20562 -20.929604,0 0,-4.31609 20.929604,0 0,4.31609 z"
       id="path27-8-5-2" />
    <path
       inkscape:connector-curvature="0"
       style="fill:#37474f;fill-opacity:1"
       d="m 109.61321,979.39817 -70.259217,0 0,-4.31607 70.259217,0 0,4.31607 z"
       id="path29-0-2-0" />
    <g
       id="g17-8-9-5"
       transform="matrix(0.44868558,0,0,0.44868559,12.66784,908.94749)">
      <path
         style="fill:#37474f;fill-opacity:1"
         inkscape:connector-curvature="0"
         d="m 34,32 c 0,1.105 -0.895,2 -2,2 l 0,0 c -1.105,0 -2,-0.895 -2,-2 l 0,-8 c 0,-1.105 0.895,-2 2,-2 l 0,0 c 1.105,0 2,0.895 2,2 l 0,8 z"
         id="path19-4-2-3-5" />
    </g>
    <g
       id="g21-7-1-4"
       transform="matrix(0.44868558,0,0,0.44868559,12.66784,908.94749)">
      <path
         style="fill:#37474f;fill-opacity:1"
         inkscape:connector-curvature="0"
         d="m 34,40 c 0,1.105 -0.895,2 -2,2 l 0,0 c -1.105,0 -2,-0.895 -2,-2 l 0,0 c 0,-1.105 0.895,-2 2,-2 l 0,0 c 1.105,0 2,0.895 2,2 l 0,0 z"
         id="path23-7-9-0-94" />
    </g>
    <ellipse
       style="fill:#ffd766;fill-opacity:1"
       id="path5110-2-0-8"
       cx="65.019592"
       cy="941.64294"
       rx="15.171537"
       ry="15.044045" />
    <path
       style="fill:#000000;fill-rule:evenodd;stroke:none;stroke-width:1"
       inkscape:connector-curvature="0"
       d="m 78.908935,951.50401 c 1.979745,-2.83934 3.140739,-6.29207 3.140739,-10.01573 0,-9.68285 -7.849375,-17.53219 -17.532055,-17.53219 -9.682666,0 -17.532054,7.84934 -17.532054,17.53219 0,9.68256 7.849388,17.53193 17.532054,17.53193 3.723299,0 7.175509,-1.16069 10.014551,-3.13997 l 0.0011,-9.7e-4 13.001644,13.00186 c 0.241078,0.24093 0.624526,0.24829 0.87202,8.2e-4 l 3.50437,-3.50439 c 0.24055,-0.2405 0.229371,-0.6417 -9.7e-4,-0.8721 L 78.908894,951.50401 Z m -14.391316,3.39093 c 7.404423,0 13.406866,-6.00238 13.406866,-13.40666 0,-7.40468 -6.002443,-13.4069 -13.406866,-13.4069 -7.404406,0 -13.406865,6.00222 -13.406865,13.4069 0,7.40428 6.002459,13.40666 13.406865,13.40666 z"
       id="common-search-lookup-glyph-5-2-2-5" />
    <path
       inkscape:connector-curvature="0"
       class="st0"
       d="m 67.883924,941.66813 -1.546499,-0.10972 c -0.128318,-0.58687 -0.360657,-1.1369 -0.672407,-1.62603 l 1.020833,-1.1676 c 0.109978,-0.1097 0.109978,-0.29331 0,-0.4094 l -0.959704,-0.95972 c -0.109979,-0.10971 -0.293401,-0.10971 -0.40954,0 l -1.167519,1.0207 c -0.489017,-0.31161 -1.039153,-0.54396 -1.625961,-0.67226 l -0.109989,-1.54659 c 0,-0.15887 -0.12832,-0.28736 -0.287295,-0.28736 l -1.357022,0 c -0.158927,0 -0.287295,0.12778 -0.287295,0.28736 l -0.109978,1.54659 c -0.586826,0.12777 -1.136972,0.36065 -1.625988,0.67226 l -1.167509,-1.0207 c -0.109979,-0.10971 -0.293403,-0.10971 -0.409552,0 l -0.959677,0.95972 c -0.109979,0.10971 -0.109979,0.29346 0,0.40941 l 1.020804,1.16761 c -0.311746,0.48912 -0.544022,1.03916 -0.672393,1.62602 l -1.546512,0.10972 c -0.158924,0 -0.287293,0.12779 -0.287293,0.28718 l 0,1.35705 c 0,0.15899 0.128319,0.28731 0.287293,0.28731 l 1.546512,0.10971 c 0.128318,0.58684 0.360647,1.13705 0.672393,1.626 l -1.020804,1.16749 c -0.109979,0.1097 -0.109979,0.29343 0,0.40953 l 0.959677,0.9596 c 0.109978,0.10969 0.293416,0.10969 0.409552,0 l 1.167509,-1.02071 c 0.489016,0.31179 1.039162,0.54395 1.625988,0.67244 l 0.109978,1.54646 c 0,0.15886 0.128319,0.28729 0.287295,0.28729 l 1.357022,0 c 0.158921,0 0.287295,-0.12776 0.287295,-0.28729 l 0.109989,-1.54646 c 0.586808,-0.12779 1.136944,-0.36065 1.625961,-0.67244 l 1.167519,1.02071 c 0.109979,0.10969 0.29342,0.10969 0.40954,0 l 0.959704,-0.9596 c 0.109978,-0.10971 0.109978,-0.29342 0,-0.40953 l -1.020833,-1.16749 c 0.31175,-0.48895 0.544039,-1.03916 0.672407,-1.626 l 1.546499,-0.10971 c 0.158936,0 0.287307,-0.12777 0.287307,-0.28731 l 0,-1.35705 c 0,-0.15888 -0.12832,-0.28718 -0.287307,-0.28718 z m -6.436636,3.72879 c -1.528167,0 -2.762916,-1.23496 -2.762916,-2.76295 0,-1.52839 1.234749,-2.76294 2.762916,-2.76294 1.528166,0 2.76293,1.23455 2.76293,2.76294 0,1.52186 -1.234764,2.76295 -2.76293,2.76295 z"
       id="path7-86-5-1-3" />
    <path
       inkscape:connector-curvature="0"
       class="st0"
       d="m 75.115214,936.09944 -0.959686,0.33607 c -0.232288,-0.31774 -0.513457,-0.59271 -0.825221,-0.80073 l 0.311764,-0.97195 c 0.03667,-0.0972 -0.0068,-0.2076 -0.103867,-0.24428 l -0.825221,-0.33008 c -0.09792,-0.0361 -0.207834,0.0141 -0.244509,0.10411 l -0.440106,0.91696 c -0.378989,-0.0612 -0.764089,-0.0612 -1.1553,0.0194 l -0.464561,-0.90473 c -0.04276,-0.0971 -0.152813,-0.14055 -0.25062,-0.0971 l -0.819098,0.35455 c -0.09778,0.0416 -0.14059,0.15276 -0.09778,0.25049 l 0.336203,0.95972 c -0.317858,0.23234 -0.592932,0.51356 -0.800765,0.82518 l -0.97191,-0.31162 c -0.09778,-0.036 -0.20783,0.0141 -0.244506,0.10411 l -0.33008,0.82501 c -0.03668,0.0972 0.0068,0.20804 0.103875,0.2447 l 0.916931,0.44007 c -0.06112,0.37885 -0.06112,0.76393 0.01835,1.15527 l -0.904671,0.46451 c -0.09778,0.0416 -0.140602,0.15293 -0.09778,0.25066 l 0.354524,0.81923 c 0.04276,0.0971 0.152811,0.14038 0.25062,0.0971 l 0.959688,-0.33606 c 0.232286,0.31772 0.51347,0.5928 0.825206,0.8007 l -0.311731,0.97196 c -0.03668,0.0971 0.0056,0.20776 0.103877,0.2444 l 0.82521,0.33011 c 0.09778,0.0361 0.207831,-0.0141 0.244506,-0.10411 l 0.44012,-0.91694 c 0.378976,0.0612 0.764078,0.0612 1.155287,-0.0195 l 0.464562,0.90472 c 0.04276,0.0971 0.152812,0.14053 0.25062,0.0971 l 0.819096,-0.35467 c 0.0979,-0.0417 0.140589,-0.15275 0.0979,-0.25052 l -0.336202,-0.95974 c 0.317873,-0.2322 0.592932,-0.51353 0.800765,-0.82516 l 0.971925,0.31163 c 0.09776,0.0375 0.207817,-0.0141 0.244492,-0.10412 l 0.330096,-0.82513 c 0.03668,-0.0972 -0.0069,-0.20791 -0.103855,-0.24459 l -0.916906,-0.44004 c 0.06112,-0.37901 0.06112,-0.76409 -0.01833,-1.15528 l 0.904669,-0.46453 c 0.09792,-0.0417 0.140591,-0.15288 0.09792,-0.25066 l -0.354535,-0.81917 c -0.04888,-0.0971 -0.158925,-0.1404 -0.250618,-0.0971 z m -2.909628,3.9182 c -0.916904,0.39733 -1.98662,-0.0239 -2.38394,-0.94749 -0.397321,-0.92292 0.02444,-1.98668 0.947454,-2.38385 0.916904,-0.39729 1.986619,0.0249 2.383953,0.94752 0.397319,0.92306 -0.03055,1.9864 -0.947467,2.38382 z"
       id="path9-1-3-5-4-6" />
    <path
       inkscape:connector-curvature="0"
       style="fill:#ffd766"
       d="m 127.36591,956.89286 c 0,0 0,-1.75204 0,-1.75204 0.5256,-1.75201 1.57681,-4.20484 3.85447,-6.48245 5.08082,-5.08085 5.08082,-12.43934 0,-17.69539 -2.27765,-2.45284 -5.6065,-3.85443 -8.93531,-3.85443 l 0,0 c -3.32884,0 -6.48247,1.40159 -8.9353,3.85443 -5.08084,5.25605 -5.08084,12.61454 0,17.69539 2.27763,2.27761 3.32884,6.48245 3.85445,8.23449"
       id="path9-01" />
    <path
       inkscape:connector-curvature="0"
       style="fill:none;stroke:#000000;stroke-width:3.50403619;stroke-linecap:round;stroke-linejoin:round;stroke-miterlimit:10;stroke-opacity:1"
       d="m 127.36591,955.14082 c 0,0 0,0 0,0 0.5256,-1.75201 1.40161,-4.20484 3.67926,-6.48245 5.08083,-5.08085 5.08083,-12.43934 0,-17.69539 -2.27765,-2.45284 -5.60648,-3.85443 -8.93531,-3.85443 l 0,0 c -3.32883,0 -6.48246,1.40159 -8.93531,3.85443 -5.08083,5.25605 -5.08083,12.61454 0,17.69539 2.27764,2.27761 3.32886,4.73044 3.85448,6.48245"
       stroke-miterlimit="10"
       id="path11-6" />
    <line
       style="fill:none;stroke:#000000;stroke-width:3.50403619;stroke-linecap:round;stroke-linejoin:round;stroke-miterlimit:10;stroke-opacity:1"
       stroke-miterlimit="10"
       x1="115.80262"
       x2="128.06676"
       y1="957.94403"
       y2="957.94403"
       id="line13-6" />
    <line
       style="fill:none;stroke:#000000;stroke-width:3.50403619;stroke-linecap:round;stroke-linejoin:round;stroke-miterlimit:10;stroke-opacity:1"
       stroke-miterlimit="10"
       x1="117.55472"
       x2="126.31476"
       y1="963.2002"
       y2="963.2002"
       id="line15-1" />
    <line
       style="fill:none;stroke:#000000;stroke-width:3.50403619;stroke-linecap:round;stroke-linejoin:round;stroke-miterlimit:10;stroke-opacity:1"
       stroke-miterlimit="10"
       x1="119.30667"
       x2="124.56274"
       y1="966.7041"
       y2="966.7041"
       id="line17-3" />
    <line
       style="fill:none;stroke:#000000;stroke-width:3.50403619;stroke-linecap:round;stroke-linejoin:round;stroke-miterlimit:10;stroke-opacity:1"
       stroke-miterlimit="10"
       x1="121.05868"
       x2="121.05868"
       y1="922.90369"
       y2="915.89563"
       id="line19-03" />
    <line
       style="fill:none;stroke:#000000;stroke-width:3.50403619;stroke-linecap:round;stroke-linejoin:round;stroke-miterlimit:10;stroke-opacity:1"
       stroke-miterlimit="10"
       x1="140.33092"
       x2="147.33894"
       y1="940.42395"
       y2="940.42395"
       id="line21-3" />
    <line
       style="fill:none;stroke:#000000;stroke-width:3.50403619;stroke-linecap:round;stroke-linejoin:round;stroke-miterlimit:10;stroke-opacity:1"
       stroke-miterlimit="10"
       x1="98.282448"
       x2="105.29049"
       y1="940.42395"
       y2="940.42395"
       id="line23-1" />
    <line
       style="fill:none;stroke:#000000;stroke-width:3.50403619;stroke-linecap:round;stroke-linejoin:round;stroke-miterlimit:10;stroke-opacity:1"
       stroke-miterlimit="10"
       x1="136.30127"
       x2="141.55733"
       y1="927.63409"
       y2="922.37811"
       id="line25-0" />
    <line
       style="fill:none;stroke:#000000;stroke-width:3.50403619;stroke-linecap:round;stroke-linejoin:round;stroke-miterlimit:10;stroke-opacity:1"
       stroke-miterlimit="10"
       x1="108.61932"
       x2="103.36327"
       y1="927.63409"
       y2="922.37811"
       id="line27-9" />
    <polyline
       transform="matrix(1.7520182,0,0,1.7520182,59.73802,894.87141)"
       style="fill:none;stroke:#000000;stroke-width:2;stroke-linecap:round;stroke-linejoin:round;stroke-miterlimit:10;stroke-opacity:1"
       points="  35.7,25.3 34.1,28.2 37.4,28.2 35.7,31.1 "
       stroke-miterlimit="10"
       id="polyline29-2" />
    <text
       xml:space="preserve"
       style="font-style:normal;font-weight:normal;font-size:40px;line-height:110.00000238%;font-family:sans-serif;letter-spacing:0px;word-spacing:0px;fill:#000000;fill-opacity:1;stroke:none;stroke-width:1px;stroke-linecap:butt;stroke-linejoin:miter;stroke-opacity:1;filter:url(#filter4224)"
       x="64.672455"
       y="1039.9878"
       id="text5552"
       sodipodi:linespacing="110%"
       transform="matrix(1.1951325,0,0,1.1951325,-7.1839393,-189.4614)"><tspan
         sodipodi:role="line"
         x="68.139252"
         y="1039.9878"
         style="font-style:normal;font-variant:normal;font-weight:normal;font-stretch:normal;font-size:40px;line-height:110.00000238%;font-family:'Helvetica Neue';-inkscape-font-specification:'Helvetica Neue';text-align:center;text-anchor:middle"
         id="tspan3389">Intell<tspan
   style="font-size:25px;text-align:center;text-anchor:middle"
   id="tspan5560"
   dy="5">Edit </tspan></tspan></text>
    <text
       xml:space="preserve"
       style="font-style:normal;font-weight:normal;font-size:40px;line-height:80.00000119%;font-family:sans-serif;letter-spacing:0px;word-spacing:0px;fill:#000000;fill-opacity:1;stroke:none;stroke-width:1px;stroke-linecap:butt;stroke-linejoin:miter;stroke-opacity:1;filter:url(#filter4224-6)"
       x="166.58095"
       y="1027.6173"
       id="text5552-2"
       sodipodi:linespacing="80.000001%"><tspan
         sodipodi:role="line"
         x="181.58095"
         y="1027.6173"
         style="font-style:normal;font-variant:normal;font-weight:bold;font-stretch:normal;font-size:20px;line-height:80.00000119%;font-family:'Courier New';-inkscape-font-specification:'Courier New Bold';text-align:center;letter-spacing:30px;text-anchor:middle"
         id="tspan3411">X</tspan><tspan
         sodipodi:role="line"
         x="181.58095"
         y="1043.6173"
         style="font-style:normal;font-variant:normal;font-weight:bold;font-stretch:normal;font-size:20px;line-height:80.00000119%;font-family:'Courier New';-inkscape-font-specification:'Courier New Bold';text-align:center;letter-spacing:30px;text-anchor:middle"
         id="tspan3479">M</tspan><tspan
         sodipodi:role="line"
         x="181.58095"
         y="1059.6173"
         style="font-style:normal;font-variant:normal;font-weight:bold;font-stretch:normal;font-size:20px;line-height:80.00000119%;font-family:'Courier New';-inkscape-font-specification:'Courier New Bold';text-align:center;letter-spacing:30px;text-anchor:middle"
         id="tspan3481">L</tspan></text>
  </g>
</svg>
